<svg width="238" height="276" viewBox="0 0 238 276" fill="none" xmlns="http://www.w3.org/2000/svg">
<path d="M211.314 81.6277L215.587 77.3408C221.752 71.1663 222.878 62.1925 218.086 57.4017C213.294 52.6109 204.334 53.7227 198.176 59.8971L193.871 64.208C176.746 50.2779 156.074 41.4187 134.187 38.6304V30.9603H140.305C149.019 30.9603 156.151 23.994 156.151 15.4842C156.151 6.97427 149.019 0 140.305 0H97.7208C89.0075 0 81.8755 6.96627 81.8755 15.4842C81.8755 24.002 89.0075 30.9603 97.7208 30.9603H103.839V38.6304C77.6967 41.9933 53.4093 53.9522 34.7872 72.6308C16.1652 91.3093 4.26218 115.651 0.945904 141.835C-2.37038 168.02 3.08771 194.566 16.4638 217.309C29.8399 240.052 50.377 257.704 74.8528 267.496C99.3286 277.288 126.358 278.665 151.7 271.412C177.042 264.16 199.263 248.687 214.875 227.421C230.488 206.156 238.609 180.302 237.964 153.915C237.32 127.529 227.946 102.103 211.314 81.6277ZM119.013 244.947C101.61 244.947 84.5984 239.779 70.1286 230.097C55.6589 220.414 44.3813 206.652 37.7219 190.551C31.0625 174.45 29.3205 156.733 32.7162 139.64C36.1119 122.547 44.4927 106.847 56.7989 94.5241C69.105 82.2015 84.7837 73.81 101.852 70.411C118.921 67.012 136.613 68.7581 152.69 75.4285C168.768 82.0989 182.509 93.3939 192.176 107.885C201.844 122.377 207.003 139.413 207.001 156.841C206.999 180.209 197.728 202.619 181.227 219.142C164.726 235.665 142.348 244.947 119.013 244.947Z" fill="#DEDEDE"/>
<path d="M48.9062 70H1V59.9219L18.2031 42.5312C23.2969 37.3125 26.625 33.7031 28.1875 31.7031C29.75 29.6719 30.875 27.7969 31.5625 26.0781C32.25 24.3594 32.5938 22.5781 32.5938 20.7344C32.5938 17.9844 31.8281 15.9375 30.2969 14.5938C28.7969 13.25 26.7812 12.5781 24.25 12.5781C21.5938 12.5781 19.0156 13.1875 16.5156 14.4062C14.0156 15.625 11.4062 17.3594 8.6875 19.6094L0.8125 10.2812C4.1875 7.40625 6.98438 5.375 9.20312 4.1875C11.4219 3 13.8438 2.09375 16.4688 1.46875C19.0938 0.8125 22.0312 0.484375 25.2812 0.484375C29.5625 0.484375 33.3438 1.26563 36.625 2.82812C39.9062 4.39062 42.4531 6.57812 44.2656 9.39062C46.0781 12.2031 46.9844 15.4219 46.9844 19.0469C46.9844 22.2031 46.4219 25.1719 45.2969 27.9531C44.2031 30.7031 42.4844 33.5312 40.1406 36.4375C37.8281 39.3438 33.7344 43.4844 27.8594 48.8594L19.0469 57.1562V57.8125H48.9062V70ZM105.297 55.7969H97.0469V70H82.8906V55.7969H53.6406V45.7188L83.6875 1.46875H97.0469V44.5469H105.297V55.7969ZM82.8906 44.5469V32.9219C82.8906 30.9844 82.9688 28.1719 83.125 24.4844C83.2812 20.7969 83.4062 18.6563 83.5 18.0625H83.125C81.9688 20.625 80.5781 23.125 78.9531 25.5625L66.3906 44.5469H82.8906Z" fill="#D22856"/>
<circle cx="101" cy="101" r="93" stroke="#D22856" stroke-width="16"/>
</svg>
